<svg width="64" height="64" viewBox="0 0 64 64" fill="none" xmlns="http://www.w3.org/2000/svg">
<g filter="url(#filter0_ddd_1_1069)">
<path d="M54.1538 32C54.1538 44.2352 44.2352 54.1539 31.9999 54.1539C19.7647 54.1539 9.84609 44.2352 9.84609 32C9.84609 19.7648 19.7647 9.84615 31.9999 9.84615C44.2352 9.84615 54.1538 19.7648 54.1538 32Z" fill="#CFECCA"/>
<path d="M32.0001 10.954C43.6235 10.954 53.0463 20.3767 53.0463 32.0001C53.0462 43.6235 43.6234 53.0462 32.0001 53.0463C20.3767 53.0463 10.954 43.6235 10.9539 32.0001C10.9539 20.3767 20.3766 10.954 32.0001 10.954Z" stroke="#1D890B" stroke-width="2.18143"/>
</g>
<defs>
<filter id="filter0_ddd_1_1069" x="-6.10166e-05" y="9.68518e-07" width="64" height="64" filterUnits="userSpaceOnUse" color-interpolation-filters="sRGB">
<feFlood flood-opacity="0" result="BackgroundImageFix"/>
<feColorMatrix in="SourceAlpha" type="matrix" values="0 0 0 0 0 0 0 0 0 0 0 0 0 0 0 0 0 0 127 0" result="hardAlpha"/>
<feOffset dy="0.807938"/>
<feGaussianBlur stdDeviation="1.21191"/>
<feComposite in2="hardAlpha" operator="out"/>
<feColorMatrix type="matrix" values="0 0 0 0 0 0 0 0 0 0 0 0 0 0 0 0 0 0 0.08 0"/>
<feBlend mode="normal" in2="BackgroundImageFix" result="effect1_dropShadow_1_1069"/>
<feColorMatrix in="SourceAlpha" type="matrix" values="0 0 0 0 0 0 0 0 0 0 0 0 0 0 0 0 0 0 127 0" result="hardAlpha"/>
<feOffset dy="0.807938"/>
<feGaussianBlur stdDeviation="0.807938"/>
<feComposite in2="hardAlpha" operator="out"/>
<feColorMatrix type="matrix" values="0 0 0 0 0 0 0 0 0 0 0 0 0 0 0 0 0 0 0.04 0"/>
<feBlend mode="normal" in2="effect1_dropShadow_1_1069" result="effect2_dropShadow_1_1069"/>
<feColorMatrix in="SourceAlpha" type="matrix" values="0 0 0 0 0 0 0 0 0 0 0 0 0 0 0 0 0 0 127 0" result="hardAlpha"/>
<feOffset/>
<feGaussianBlur stdDeviation="4.84763"/>
<feComposite in2="hardAlpha" operator="out"/>
<feColorMatrix type="matrix" values="0 0 0 0 0 0 0 0 0 0 0 0 0 0 0 0 0 0 0.04 0"/>
<feBlend mode="normal" in2="effect2_dropShadow_1_1069" result="effect3_dropShadow_1_1069"/>
<feBlend mode="normal" in="SourceGraphic" in2="effect3_dropShadow_1_1069" result="shape"/>
</filter>
</defs>
</svg>
