<svg width="67" height="67" viewBox="0 0 67 67" fill="none" xmlns="http://www.w3.org/2000/svg">
<g filter="url(#filter0_ddd_1_1171)">
<path d="M56.6923 33.5C56.6923 46.3087 46.3088 56.6923 33.5 56.6923C20.6913 56.6923 10.3077 46.3087 10.3077 33.5C10.3077 20.6912 20.6913 10.3077 33.5 10.3077C46.3088 10.3077 56.6923 20.6912 56.6923 33.5Z" fill="#CFECCA"/>
<path d="M33.4998 11.4674C45.668 11.4674 55.5329 21.3315 55.5331 33.4997C55.5331 45.668 45.6681 55.533 33.4998 55.533C21.3316 55.5328 11.4674 45.6679 11.4674 33.4997C11.4676 21.3316 21.3317 11.4675 33.4998 11.4674Z" stroke="#033A6D" stroke-width="2.31429"/>
</g>
<defs>
<filter id="filter0_ddd_1_1171" x="5.35198e-05" y="-7.64569e-06" width="67" height="67" filterUnits="userSpaceOnUse" color-interpolation-filters="sRGB">
<feFlood flood-opacity="0" result="BackgroundImageFix"/>
<feColorMatrix in="SourceAlpha" type="matrix" values="0 0 0 0 0 0 0 0 0 0 0 0 0 0 0 0 0 0 127 0" result="hardAlpha"/>
<feOffset dy="0.857143"/>
<feGaussianBlur stdDeviation="1.28571"/>
<feComposite in2="hardAlpha" operator="out"/>
<feColorMatrix type="matrix" values="0 0 0 0 0 0 0 0 0 0 0 0 0 0 0 0 0 0 0.08 0"/>
<feBlend mode="normal" in2="BackgroundImageFix" result="effect1_dropShadow_1_1171"/>
<feColorMatrix in="SourceAlpha" type="matrix" values="0 0 0 0 0 0 0 0 0 0 0 0 0 0 0 0 0 0 127 0" result="hardAlpha"/>
<feOffset dy="0.857143"/>
<feGaussianBlur stdDeviation="0.857143"/>
<feComposite in2="hardAlpha" operator="out"/>
<feColorMatrix type="matrix" values="0 0 0 0 0 0 0 0 0 0 0 0 0 0 0 0 0 0 0.04 0"/>
<feBlend mode="normal" in2="effect1_dropShadow_1_1171" result="effect2_dropShadow_1_1171"/>
<feColorMatrix in="SourceAlpha" type="matrix" values="0 0 0 0 0 0 0 0 0 0 0 0 0 0 0 0 0 0 127 0" result="hardAlpha"/>
<feOffset/>
<feGaussianBlur stdDeviation="5.14286"/>
<feComposite in2="hardAlpha" operator="out"/>
<feColorMatrix type="matrix" values="0 0 0 0 0 0 0 0 0 0 0 0 0 0 0 0 0 0 0.04 0"/>
<feBlend mode="normal" in2="effect2_dropShadow_1_1171" result="effect3_dropShadow_1_1171"/>
<feBlend mode="normal" in="SourceGraphic" in2="effect3_dropShadow_1_1171" result="shape"/>
</filter>
</defs>
</svg>
