<svg width="12" height="12" viewBox="0 0 12 12" fill="none" xmlns="http://www.w3.org/2000/svg">
<path d="M2.50243 9.6C2.74952 8.90088 3.41627 8.4 4.2 8.4C4.98372 8.4 5.6505 8.90088 5.89758 9.6H12V10.8H5.89758C5.6505 11.4991 4.98372 12 4.2 12C3.41627 12 2.74952 11.4991 2.50243 10.8H0V9.6H2.50243ZM6.10242 5.4C6.3495 4.70089 7.01628 4.2 7.8 4.2C8.58372 4.2 9.2505 4.70089 9.49758 5.4H12V6.6H9.49758C9.2505 7.29912 8.58372 7.8 7.8 7.8C7.01628 7.8 6.3495 7.29912 6.10242 6.6H0V5.4H6.10242ZM2.50243 1.2C2.74952 0.500886 3.41627 0 4.2 0C4.98372 0 5.6505 0.500886 5.89758 1.2H12V2.4H5.89758C5.6505 3.09911 4.98372 3.6 4.2 3.6C3.41627 3.6 2.74952 3.09911 2.50243 2.4H0V1.2H2.50243Z" fill="white"/>
</svg>
